<?xml version="1.0" standalone="no"?>
<!DOCTYPE svg PUBLIC "-//W3C//DTD SVG 20010904//EN"
 "http://www.w3.org/TR/2001/REC-SVG-20010904/DTD/svg10.dtd">
<svg version="1.0" xmlns="http://www.w3.org/2000/svg"
 width="700.000000pt" height="700.000000pt" viewBox="0 0 700.000000 700.000000"
 preserveAspectRatio="xMidYMid meet">
<metadata>
Created by potrace 1.14, written by Peter Selinger 2001-2017
</metadata>
<g transform="translate(0.000000,700.000000) scale(0.100000,-0.100000)"
fill="#000000" stroke="none">
<path d="M3278 6996 c-1 -2 -39 -6 -83 -10 -112 -8 -266 -30 -365 -51 -14 -3
-47 -10 -75 -15 -78 -16 -232 -59 -325 -92 -47 -16 -92 -31 -100 -33 -31 -7
-287 -118 -384 -167 -132 -66 -289 -157 -401 -231 -81 -54 -272 -193 -285
-207 -3 -3 -34 -30 -70 -60 -610 -512 -1022 -1285 -1150 -2160 -30 -206 -35
-269 -35 -495 1 -251 13 -409 50 -605 3 -14 7 -41 10 -60 3 -19 10 -48 14 -65
11 -34 24 -110 20 -110 -1 0 3 -10 9 -21 6 -12 14 -35 17 -52 6 -38 91 -293
115 -347 10 -22 30 -69 45 -105 122 -293 358 -662 595 -930 147 -168 372 -373
540 -495 30 -22 57 -43 58 -47 2 -5 8 -8 13 -8 4 0 48 -26 96 -58 48 -32 105
-68 126 -81 l37 -23 1 244 c1 252 1 264 13 363 9 72 47 235 76 325 l21 65 -23
18 c-598 483 -959 1243 -962 2022 0 97 11 290 19 337 2 13 11 66 20 118 58
366 221 753 453 1074 205 285 491 545 792 720 169 98 426 212 581 256 117 34
317 78 383 85 33 4 63 8 66 10 12 8 218 18 345 18 144 0 274 -9 350 -23 28 -5
68 -12 90 -15 22 -3 47 -7 55 -10 8 -2 26 -6 40 -9 14 -2 45 -9 70 -16 25 -7
52 -13 60 -15 42 -9 237 -78 320 -114 108 -47 306 -155 395 -214 58 -39 245
-176 255 -187 3 -3 23 -20 45 -39 197 -165 450 -468 573 -686 121 -215 230
-487 259 -644 2 -14 6 -28 8 -31 2 -4 7 -20 9 -36 3 -16 8 -40 11 -54 3 -14
10 -56 16 -95 6 -38 12 -81 14 -93 10 -58 19 -238 18 -357 -1 -188 -13 -318
-48 -486 -63 -310 -180 -601 -352 -871 -136 -214 -379 -496 -541 -629 l-44
-35 21 -60 c70 -209 88 -337 90 -664 1 -145 3 -265 4 -267 5 -4 201 123 299
193 372 267 708 633 948 1031 62 103 186 342 222 428 9 22 26 60 36 85 42 100
137 400 146 465 2 11 6 30 10 42 8 24 8 27 29 143 8 47 18 108 22 135 3 28 8
64 10 80 3 17 7 53 11 80 10 78 12 530 3 627 -13 144 -23 225 -35 282 -2 11
-7 37 -10 56 -24 150 -92 395 -159 575 -42 112 -133 323 -148 343 -6 7 -20 35
-32 61 -40 85 -145 262 -236 396 -456 672 -1080 1123 -1874 1353 -129 37 -261
70 -310 77 -11 2 -40 8 -65 13 -25 6 -103 18 -175 27 -71 8 -143 18 -160 21
-32 5 -501 14 -507 10z"/>
<path d="M3407 5684 c-1 -1 -45 -5 -97 -8 -427 -30 -908 -231 -1239 -519 -271
-236 -497 -563 -620 -897 -46 -125 -84 -275 -107 -420 -3 -19 -7 -46 -9 -60
-3 -14 -8 -68 -12 -120 -46 -640 170 -1221 632 -1697 49 -51 94 -93 100 -93 6
0 31 28 55 62 93 129 338 348 475 424 11 7 48 27 83 46 l63 35 -38 28 c-79 60
-222 214 -286 311 -95 142 -172 320 -192 440 -3 22 -9 57 -13 79 -8 52 -9 316
0 380 40 303 172 561 395 775 169 162 350 263 569 319 113 28 181 36 334 36
196 -1 268 -12 434 -67 404 -134 735 -495 840 -919 110 -444 -7 -888 -322
-1220 -46 -48 -105 -104 -132 -125 l-49 -37 46 -25 c216 -115 447 -308 573
-480 25 -34 50 -61 56 -62 19 0 207 201 290 310 185 244 318 521 390 815 27
110 28 115 48 260 13 92 15 420 2 510 -33 244 -104 471 -217 701 -228 462
-601 820 -1064 1022 -294 127 -582 190 -905 196 -45 1 -82 1 -83 0z"/>
<path d="M3345 4369 c-215 -29 -430 -177 -571 -394 -108 -166 -149 -306 -147
-500 4 -328 210 -640 513 -777 144 -66 293 -86 470 -64 238 29 473 171 616
372 146 205 189 498 110 763 -87 293 -376 532 -715 591 -79 14 -209 18 -276 9z"/>
<path d="M3458 2185 c-2 -1 -39 -5 -83 -9 -131 -10 -212 -27 -338 -73 -334
-120 -648 -432 -767 -762 -72 -196 -73 -209 -77 -803 l-4 -538 1313 0 1314 0
-1 513 c-1 281 -4 521 -8 532 -3 11 -9 40 -12 65 -14 100 -46 201 -105 325
-127 266 -378 514 -639 632 -127 57 -278 98 -398 108 -86 7 -192 13 -195 10z"/>
</g>
</svg>
